<?xml version="1.0" standalone="no"?>
<svg xmlns="http://www.w3.org/2000/svg" viewBox="0 0 141 29" width="141" height="29"><path fill="#0f1c93" fill-rule="nonzero" d="M0 1.27L0 0.74L12.48 0.74L12.72 5.74L12.29 5.74Q11.40 3.14 10.24 2.21Q9.07 1.27 6.77 1.27L6.77 1.27L6.10 1.27L6.10 9.07L7.18 9.07Q8.33 9.07 9.10 8.23Q9.86 7.39 10.15 5.93L10.15 5.93L10.51 5.93L10.51 13.03L10.10 13.03Q9.72 11.23 9.04 10.46Q8.35 9.70 7.18 9.70L7.18 9.70L6.10 9.70L6.10 17.02L9.07 17.02L9.07 17.54L0 17.54L0 17.02L1.42 17.02L1.42 1.27L0 1.27ZM20.54 17.28L20.54 17.28Q21.74 17.28 22.67 16.63Q23.59 15.98 23.59 14.68Q23.59 13.37 22.60 12.67Q21.60 11.98 19.76 11.46Q17.93 10.94 17.10 10.56Q16.27 10.18 15.53 9.55L15.53 9.55Q14.04 8.30 14.04 5.69L14.04 5.69Q14.04 3.55 15.56 2.02Q17.09 0.48 19.73 0.48L19.73 0.48Q21 0.48 22.38 0.85Q23.76 1.22 24.10 1.22Q24.43 1.22 24.70 0.74L24.70 0.74L24.96 0.74L25.13 5.59L24.74 5.59Q23.59 3.50 22.33 2.24Q21.07 0.98 19.60 0.98Q18.12 0.98 17.30 1.67Q16.49 2.35 16.49 3.49Q16.49 4.63 17.46 5.24Q18.43 5.86 19.85 6.24Q21.26 6.62 21.71 6.77Q22.15 6.91 22.81 7.16Q23.47 7.42 23.89 7.69Q24.31 7.97 24.78 8.39Q25.25 8.81 25.51 9.31L25.51 9.31Q26.16 10.46 26.16 12.05L26.16 12.05Q26.16 14.64 24.54 16.21Q22.92 17.78 20.28 17.78L20.28 17.78Q18.91 17.78 17.15 17.42Q15.38 17.06 15.19 17.06L15.19 17.06Q14.86 17.06 14.54 17.78L14.54 17.78L14.21 17.78L13.97 12.07L14.38 12.07Q15.43 14.16 17.08 15.72Q18.72 17.28 20.54 17.28ZM35.14 12.82L35.14 12.82L35.14 10.78Q35.14 8.45 34.88 7.38Q34.63 6.31 33.72 6.31L33.72 6.31Q33.19 6.31 32.87 6.61Q32.54 6.91 32.40 7.61L32.40 7.61Q32.18 8.69 32.18 10.90L32.18 10.90L32.18 12.77Q32.18 15.38 32.34 15.91Q32.50 16.44 32.66 16.78L32.66 16.78Q32.93 17.35 33.70 17.35L33.70 17.35Q34.63 17.35 34.92 16.27L34.92 16.27Q35.14 15.50 35.14 12.82ZM33.65 17.78Q30.65 17.78 29.11 16.25Q27.58 14.71 27.58 11.84Q27.58 8.98 29.22 7.43Q30.86 5.88 33.84 5.88Q36.82 5.88 38.28 7.31Q39.74 8.74 39.74 11.66L39.74 11.66Q39.74 17.78 33.65 17.78L33.65 17.78ZM47.14 6.31L47.14 6.31Q46.08 6.31 45.62 7.46Q45.17 8.62 45.17 11.28L45.17 11.28L45.17 12.53Q45.17 14.90 45.70 15.94Q46.22 16.97 47.64 16.97Q49.06 16.97 49.90 16.01Q50.74 15.05 50.98 13.82L50.98 13.82L51.41 13.87Q50.95 15.94 49.73 16.85L49.73 16.85Q48.48 17.78 46.30 17.78L46.30 17.78Q43.51 17.78 42.02 16.28Q40.54 14.78 40.54 11.89Q40.54 9 42.23 7.44Q43.92 5.88 46.94 5.88L46.94 5.88Q49.08 5.88 50.21 6.71Q51.34 7.54 51.34 8.78Q51.34 10.03 50.80 10.61Q50.26 11.18 49.31 11.18Q48.36 11.18 47.78 10.68Q47.21 10.18 47.21 9.19L47.21 9.19Q47.21 8.76 47.33 8.33L47.33 8.33L48.12 8.33Q48.29 7.85 48.29 7.46L48.29 7.46Q48.29 6.31 47.14 6.31ZM55.54 4.46Q54.26 4.46 53.72 3.82Q53.18 3.17 53.18 2.21Q53.18 1.25 53.77 0.62Q54.36 0 55.56 0Q56.76 0 57.38 0.56Q58.01 1.13 58.01 2.17Q58.01 3.22 57.41 3.84Q56.81 4.46 55.54 4.46ZM51.91 6.55L51.91 6.12L57.79 6.12L57.79 17.11L59.14 17.11L59.14 17.54L52.01 17.54L52.01 17.11L53.33 17.11L53.33 6.55L51.91 6.55ZM65.93 17.78Q62.83 17.78 61.28 16.19Q59.74 14.59 59.74 11.75Q59.74 8.90 61.48 7.39Q63.22 5.88 65.90 5.88L65.90 5.88Q71.35 5.88 71.14 11.35L71.14 11.35L64.37 11.35L64.37 12.29Q64.37 14.64 64.97 15.84Q65.57 17.04 67.06 17.04L67.06 17.04Q69.84 17.04 70.70 14.06L70.70 14.06L71.14 14.14Q70.68 15.86 69.49 16.82Q68.30 17.78 65.93 17.78L65.93 17.78ZM64.39 9.70L64.39 10.87L66.86 10.87L66.86 9.70Q66.86 7.75 66.64 7.04Q66.41 6.34 65.72 6.34Q65.04 6.34 64.72 7.09Q64.39 7.85 64.39 9.70L64.39 9.70ZM73.20 14.11L73.20 14.11L73.20 6.55L71.88 6.55L71.88 6.12L73.20 6.12L73.20 3.02L77.66 1.92L77.66 6.12L80.78 6.12L80.78 6.55L77.66 6.55L77.66 14.64Q77.66 15.77 77.89 16.30Q78.12 16.82 78.84 16.82Q79.56 16.82 80.10 16.10Q80.64 15.38 80.81 14.14L80.81 14.14L81.22 14.18Q81.02 15.84 80.16 16.81Q79.30 17.78 77.30 17.78Q75.31 17.78 74.26 16.99Q73.20 16.20 73.20 14.11ZM82.08 6.55L81.10 6.55L81.10 6.12L88.06 6.12L88.06 6.55L86.76 6.55L89.38 14.52L92.16 6.55L90.55 6.55L90.55 6.12L93.94 6.12L93.94 6.55L92.74 6.55L88.25 19.49Q87.46 21.74 86.47 22.64Q85.49 23.54 84.07 23.54Q82.66 23.54 81.84 22.90Q81.02 22.25 81.02 21.24Q81.02 20.23 81.55 19.70Q82.08 19.18 82.94 19.18L82.94 19.18Q84.94 19.18 84.94 20.83L84.94 20.83Q84.94 21.19 84.79 21.70L84.79 21.70L83.95 21.70Q83.76 22.25 83.90 22.61Q84.05 22.97 84.55 22.97L84.55 22.97Q85.54 22.97 86.30 22.00Q87.07 21.02 87.77 19.03L87.77 19.03L88.30 17.54L86.18 17.54L82.08 6.55Z" transform="translate(0, 2.728)"></path><line x1="102.936" y1="2%" x2="102.936" y2="98%" stroke="#0f1c93" stroke-linecap="round"></line><g fill="#bba364" color="#bba364" transform="translate(111.936 0) scale(0.5576924)"><svg width="52.0" height="52.0" x="0.0" y="0.0" viewBox="0 0 52 52"><path fill="currentColor" fill-rule="evenodd" d="M21.009 26.075l-6.747 6.747a3.95 3.95 0 0 1-2.808 1.164 3.953 3.953 0 0 1-2.81-1.164L1.9 26.075a.105.105 0 0 1 0-.15l6.746-6.746a3.95 3.95 0 0 1 2.81-1.163c1.059 0 2.057.413 2.807 1.163l6.747 6.746c.008.01.03.03.03.075a.1.1 0 0 1-.03.075m4.99 3.019c.45 0 .899.152 1.264.456l.133.122 6.746 6.746a5.84 5.84 0 0 1 .176 8.075l-.176.183-6.746 6.746a1.968 1.968 0 0 1-2.659.122l-.132-.122-6.746-6.746a5.839 5.839 0 0 1-.176-8.075l.176-.183 6.746-6.746c.384-.386.89-.578 1.395-.578zm0 1.867a.1.1 0 0 0-.06.02l-.014.011-6.745 6.746a3.939 3.939 0 0 0-1.164 2.809 3.94 3.94 0 0 0 1.008 2.645l.156.164 6.745 6.746c.01.009.03.032.075.032.029 0 .05-.01.062-.02l.013-.012 6.746-6.746a3.947 3.947 0 0 0 1.165-2.81c0-.985-.357-1.915-1.008-2.644l-.156-.164-6.747-6.746a.102.102 0 0 0-.075-.03zM11.455 16.148c1.4 0 2.802.502 3.911 1.504l.218.207 6.746 6.746c.73.73.77 1.89.115 2.665l-.115.126-6.746 6.747a5.826 5.826 0 0 1-4.129 1.71 5.825 5.825 0 0 1-3.912-1.503l-.218-.207-6.746-6.747c-.73-.73-.769-1.89-.115-2.666l.115-.125 6.746-6.746a5.823 5.823 0 0 1 4.13-1.71zm29.093 0c1.401 0 2.802.502 3.911 1.504l.218.207 6.746 6.746c.73.73.768 1.89.115 2.665l-.115.126-6.746 6.747a5.826 5.826 0 0 1-4.129 1.71 5.825 5.825 0 0 1-3.911-1.503l-.218-.207-6.746-6.747a1.974 1.974 0 0 1-.115-2.666l.115-.125 6.746-6.746a5.823 5.823 0 0 1 4.13-1.71zm0 1.868c-.985 0-1.916.356-2.644 1.008l-.164.155-6.747 6.746a.108.108 0 0 0-.023.116l.023.034 6.747 6.747a3.95 3.95 0 0 0 2.808 1.164c.985 0 1.916-.358 2.644-1.008l.164-.156 6.747-6.747c.008-.008.03-.03.03-.075a.1.1 0 0 0-.018-.061l-.012-.014-6.747-6.746a3.944 3.944 0 0 0-2.808-1.163zM26 0c.505 0 1.01.192 1.396.578l6.746 6.746a5.84 5.84 0 0 1 0 8.26l-6.746 6.744c-.385.386-.89.578-1.396.578-.505 0-1.01-.192-1.395-.578l-6.747-6.745a5.842 5.842 0 0 1 0-8.26L24.605.579C24.99.192 25.495 0 26 0zm0 1.867c-.044 0-.066.024-.074.031L19.18 8.644a3.978 3.978 0 0 0 0 5.62l6.746 6.744c.007.01.03.031.074.031a.097.097 0 0 0 .076-.03l6.745-6.746a3.976 3.976 0 0 0 0-5.619l-6.745-6.746c-.01-.007-.032-.03-.076-.03z"></path></svg></g></svg>